{"title":"Helix S01E07 HDTV x264 AAC E-Subs [GWC].mp4","uid":9619540,"size":105283197,"categoryP":"video","categoryS":"tv_shows","magnet":"?xt=urn:btih:e254322f1c73c429496f1d9248a7ec2523a8ab89&amp;dn=Helix+S01E07+HDTV+x264+AAC+E-Subs+%5BGWC%5D.mp4&amp;tr=udp%3A%2F%2Ftracker.openbittorrent.com%3A80&amp;tr=udp%3A%2F%2Fopen.demonii.com%3A1337&amp;tr=udp%3A%2F%2Ftracker.coppersurfer.tk%3A6969&amp;tr=udp%3A%2F%2Fexodus.desync.com%3A6969","seeders":1,"leechers":1,"uploader":"canc232","files":1,"time":1392478988,"description":"Helix S01E07 HDTV x264 AAC E-Subs [GWC]\n\nStoryline\nA team of scientists are thrust into a potentially life-or-death situation in this thriller, which begins with the group being deployed to the Arctic to secretly investigate what could be a disease outbreak.\n\n\nSCREENS : &lt;a href=&quot;\nhttp://i.imgur.com/dNpLtWe.jpg&quot; rel=&quot;nofollow&quot; target=&quot;_NEW&quot;&gt;\nhttp://i.imgur.com/dNpLtWe.jpg&lt;/a&gt; &lt;a href=&quot;\nhttp://i.imgur.com/BhTBdAi.jpg&quot; rel=&quot;nofollow&quot; target=&quot;_NEW&quot;&gt;\nhttp://i.imgur.com/BhTBdAi.jpg&lt;/a&gt; &lt;a href=&quot;\nhttp://i.imgur.com/7ijjUXA.jpg&quot; rel=&quot;nofollow&quot; target=&quot;_NEW&quot;&gt;\nhttp://i.imgur.com/7ijjUXA.jpg&lt;/a&gt;\n\n\n\nMEDIA INFO :\nGeneral \nFormat : MPEG-4 \nFormat profile : Base Media \nFile size : 100 MiB \nDuration : 42mn 51s \nOverall bit rate mode : Variable \nOverall bit rate : 328 Kbps \n\nVideo \nFormat : AVC \nFormat profile : &lt;a class=&quot;__cf_email__&quot; href=&quot;/cdn-cgi/l/email-protection&quot; data-cfemail=&quot;1850717f7058542b3628&quot;&gt;[email&amp;#160;protected]&lt;/a&gt;&lt;script cf-hash='f9e31' type=&quot;text/javascript&quot;&gt;\n/* &lt;![CDATA[ */!function(){try{var t=&quot;currentScript&quot;in document?document.currentScript:function(){for(var t=document.getElementsByTagName(&quot;script&quot;),e=t.length;e--;)if(t[e].getAttribute(&quot;cf-hash&quot;))return t[e]}();if(t&amp;&amp;t.previousSibling){var e,r,n,i,c=t.previousSibling,a=c.getAttribute(&quot;data-cfemail&quot;);if(a){for(e=&quot;&quot;,r=parseInt(a.substr(0,2),16),n=2;a.length-n;n+=2)i=parseInt(a.substr(n,2),16)^r,e+=String.fromCharCode(i);e=document.createTextNode(e),c.parentNode.replaceChild(e,c)}}}catch(u){}}();/* ]]&gt; */&lt;/script&gt; \nFormat settings, CABAC : Yes \nFormat settings, ReFrames : 4 frames \nDuration : 42mn 51s \nBit rate : 260 Kbps \nMaximum bit rate : 1 363 Kbps \nWidth : 720 pixels \nHeight : 404 pixels \nDisplay aspect ratio : 16:9 \nFrame rate mode : Constant \nFrame rate : 23.976 fps \nStream size : 79.8 MiB (79%) \nTitle : Helix S01E07 HDTV x264 AAC E-Subs [GWC] \nWriting library : x264 core \n\nAudio \nFormat : AAC \nFormat profile : HE-AAC / LC \nDuration : 42mn 51s \nBit rate mode : Variable \nChannel(s) : 2 channels \nSampling rate : 48.0 KHz / 24.0 KHz \nStream size : 19.6 MiB (20%) \nLanguage : English \n\nText \nFormat : Timed Text \nDuration : 42mn 42s \nTitle : English Subtitle by backinblack \nLanguage : English ","torrent":{"xt":"urn:btih:e254322f1c73c429496f1d9248a7ec2523a8ab89","amp;dn":"Helix+S01E07+HDTV+x264+AAC+E-Subs+%5BGWC%5D.mp4","amp;tr":["udp%3A%2F%2Ftracker.openbittorrent.com%3A80","udp%3A%2F%2Fopen.demonii.com%3A1337","udp%3A%2F%2Ftracker.coppersurfer.tk%3A6969","udp%3A%2F%2Fexodus.desync.com%3A6969"],"infoHash":"e254322f1c73c429496f1d9248a7ec2523a8ab89","infoHashBuffer":{"type":"Buffer","data":[226,84,50,47,28,115,196,41,73,111,29,146,72,167,236,37,35,168,171,137]},"announce":[],"urlList":[]}}